# xmcd CD database file
#
# Track frame offsets:
#	150
#	15888
#	36188
#	54203
#	72833
#	92188
#	112850
#	133428
#	150705
#	173053
#	194140
#	218003
#	238925
#
# Disc length: 3513 seconds
#
# Revision: 1
# Processed by: cddbd v1.5.2PL0 Copyright (c) Steve Scherf et al.
# Submitted via: CDex 1.51
#
DISCID=b00db70d
DTITLE=Peter Green Splinter Group - Reaching The Cold 100 (Disc-1)
DYEAR=2003
DGENRE=Blues
TTITLE0=Ain't Nothin' Gonna Change It
TTITLE1=Look Out For Yourself
TTITLE2=Cool Down
TTITLE3=Dangerous Man
TTITLE4=Needs Must The Devil Drives
TTITLE5=Must Be A Fool
TTITLE6=Don't Walk Away
TTITLE7=Can You Tell Me Why (a.k.a. Legal Fee Blues)
TTITLE8=Spiritual Thief
TTITLE9=I'm Ready For You
TTITLE10=Smile
TTITLE11=Nice Girl Like You
TTITLE12=When Somebody Cares
EXTD=YEAR: 2003
EXTT0=
EXTT1=
EXTT2=
EXTT3=
EXTT4=
EXTT5=
EXTT6=
EXTT7=
EXTT8=
EXTT9=
EXTT10=
EXTT11=
EXTT12=
PLAYORDER=
